<svg width="32" height="33" viewBox="0 0 32 33" fill="none" xmlns="http://www.w3.org/2000/svg">
<g id="Component 3">
<path id="Vector" d="M30.48 18.4602L27.544 15.5242L28.848 14.2202C29.064 14.0042 29.28 13.8922 29.608 13.8922C29.936 13.8922 30.152 14.0042 30.368 14.2202L31.672 15.5242C31.888 15.7402 32 16.0682 32 16.2842C32 16.6122 31.888 16.8282 31.672 17.0442L30.472 18.4602H30.48ZM16.328 29.6682V26.7322L25.904 17.1562L28.84 20.0922L19.264 29.6682H16.328ZM0 20.3082V18.1322H13.168V20.3082H0ZM0 13.0122V10.7242H20.568V13.0122C20.68 13.0122 0 13.0122 0 13.0122ZM0 5.61222V3.32422H20.568V5.61222C20.68 5.61222 0 5.61222 0 5.61222Z" fill="white"/>
</g>
</svg>
